HIERARCHY
ROOT Joint1
{
	OFFSET 0.000000 0.000000 0.000000
	CHANNELS 6 Xposition Yposition Zposition Xrotation Yrotation Zrotation
	JOINT Joint2
	{
		OFFSET -0.000000 0.000000 1.456275
		CHANNELS 6 Xposition Yposition Zposition Xrotation Yrotation Zrotation
		JOINT Joint3
		{
			OFFSET -0.000000 0.000002 1.471446
			CHANNELS 6 Xposition Yposition Zposition Xrotation Yrotation Zrotation
			JOINT Joint4
			{
				OFFSET 0.625745 0.000000 0.917755
				CHANNELS 6 Xposition Yposition Zposition Xrotation Yrotation Zrotation
				JOINT Joint5
				{
					OFFSET -0.629534 0.000001 0.940221
					CHANNELS 6 Xposition Yposition Zposition Xrotation Yrotation Zrotation
					JOINT Joint6
					{
						OFFSET -0.000001 0.113772 1.960660
						CHANNELS 6 Xposition Yposition Zposition Xrotation Yrotation Zrotation
						JOINT Joint7
						{
							OFFSET -0.669733 -0.113771 0.388340
							CHANNELS 6 Xposition Yposition Zposition Xrotation Yrotation Zrotation
							End Site
							{
								OFFSET 0.005509 0.005509 0.438980
							}
						}
					}
				}
			}
		}
	}
}
MOTION
Frames: 17
Frame Time: 0.041667
0.000000 0.000000 0.000000 -0.000000 1.019410 47.618672 -0.000000 -0.000000 1.456275 -0.000000 18.175162 -0.000001 -0.000000 0.000002 1.471445 -0.000003 -1.133466 -52.061747 0.625745 0.000000 0.917755 0.000005 121.966647 -0.000002 -0.629533 0.000001 0.940221 -0.000000 1.709735 53.205504 -0.000001 0.113772 1.960660 -88.303896 73.882730 0.000004 -0.669733 -0.113771 0.388341 -1.079264 3.495335 -203.471773 
0.000000 0.000000 0.000000 -0.000000 1.019410 46.455597 -0.000000 0.000000 1.456275 0.000001 16.632685 0.000001 -0.000000 0.000002 1.471446 -0.000002 -1.133464 -50.791086 0.625745 0.000000 0.917755 0.000004 122.285385 -0.000002 -0.629534 0.000001 0.940221 -0.000002 1.709742 51.905736 -0.000001 0.113772 1.960661 -88.303889 74.275883 -0.000005 -0.669733 -0.113771 0.388340 -1.070550 3.498718 -203.998312 
0.000000 0.000000 0.000000 -0.000000 1.019410 44.890520 -0.000000 0.000000 1.456275 -0.000001 14.557069 -0.000001 -0.000000 0.000002 1.471446 -0.000001 -1.133464 -49.081241 0.625745 0.000000 0.917755 0.000004 122.714307 -0.000002 -0.629533 0.000001 0.940221 -0.000001 1.709737 50.156709 -0.000001 0.113772 1.960660 -88.303889 74.804915 0.000004 -0.669733 -0.113771 0.388341 -1.058770 3.503150 -204.706848 
0.000000 0.000000 0.000000 -0.000000 1.019410 43.137248 -0.000000 0.000000 1.456275 -0.000000 12.231877 0.000000 -0.000000 0.000002 1.471445 -0.000002 -1.133463 -47.165786 0.625745 0.000000 0.917755 0.000002 123.194824 -0.000001 -0.629534 0.000001 0.940220 -0.000001 1.709737 48.197377 -0.000000 0.113772 1.960661 -88.303896 75.397577 0.000003 -0.669733 -0.113771 0.388340 -1.045516 3.507937 -205.500571 
0.000000 0.000000 0.000000 -0.000000 1.019410 41.452387 -0.000000 -0.000000 1.456275 -0.000000 9.997411 -0.000000 -0.000000 0.000002 1.471445 -0.000002 -1.133464 -45.325081 0.625745 0.000000 0.917755 0.000006 123.656586 -0.000002 -0.629534 0.000001 0.940221 -0.000001 1.709740 46.314492 -0.000001 0.113772 1.960661 -88.303896 75.967112 -0.000013 -0.669733 -0.113771 0.388340 -1.032715 3.512369 -206.263353 
0.000000 0.000000 0.000000 -0.000000 1.019410 39.818896 -0.000000 0.000000 1.456275 0.000000 7.831068 -0.000000 -0.000000 0.000002 1.471445 -0.000001 -1.133464 -43.540489 0.625745 0.000000 0.917755 0.000004 124.104264 -0.000002 -0.629534 0.000001 0.940220 -0.000000 1.709740 44.489018 -0.000001 0.113772 1.960660 -88.303889 76.519272 -0.000005 -0.669733 -0.113771 0.388340 -1.020249 3.516498 -207.002857 
0.000000 0.000000 0.000000 -0.000000 1.019410 38.168361 -0.000000 -0.000000 1.456275 -0.000000 5.642122 -0.000002 -0.000000 0.000002 1.471446 -0.000002 -1.133463 -41.737281 0.625744 0.000000 0.917755 0.000004 124.556614 -0.000001 -0.629534 0.000001 0.940221 -0.000000 1.709736 42.644491 -0.000001 0.113772 1.960660 -88.303896 77.077203 0.000011 -0.669733 -0.113771 0.388341 -1.007599 3.520510 -207.750094 
0.000000 0.000000 0.000000 -0.000000 1.019410 36.500545 -0.000000 0.000000 1.456275 0.000000 3.430259 -0.000001 -0.000000 0.000002 1.471445 -0.000001 -1.133463 -39.915185 0.625744 0.000000 0.917755 0.000003 125.013690 -0.000001 -0.629534 0.000001 0.940220 -0.000000 1.709734 40.780659 -0.000001 0.113771 1.960660 -88.303903 77.640973 0.000004 -0.669733 -0.113771 0.388340 -0.994764 3.524394 -208.505157 
0.000000 0.000000 0.000000 -0.000000 1.019410 34.832493 -0.000000 -0.000000 1.456275 0.000000 1.218085 -0.000001 -0.000000 0.000002 1.471446 -0.000001 -1.133463 -38.092846 0.625745 0.000000 0.917755 0.000004 125.470821 -0.000001 -0.629534 0.000001 0.940221 -0.000000 1.709738 38.916574 -0.000001 0.113772 1.960660 -88.303896 78.204826 0.000008 -0.669733 -0.113771 0.388340 -0.981876 3.528114 -209.260317 
0.000000 0.000000 0.000000 -0.000000 1.019410 33.182193 -0.000000 0.000000 1.456275 0.000000 -0.970549 0.000003 -0.000000 0.000002 1.471446 -0.000001 -1.133463 -36.289888 0.625745 0.000000 0.917755 0.000004 125.923116 -0.000001 -0.629534 0.000001 0.940221 -0.000000 1.709736 37.072303 -0.000001 0.113772 1.960660 -88.303916 78.762675 -0.000000 -0.669733 -0.113771 0.388340 -0.969080 3.531618 -210.007458 
0.000000 0.000000 0.000000 -0.000000 1.019410 31.549877 -0.000000 -0.000000 1.456275 -0.000000 -3.135334 -0.000002 -0.000000 0.000002 1.471445 -0.000001 -1.133462 -34.506580 0.625745 0.000000 0.917755 0.000004 126.370466 -0.000002 -0.629534 0.000001 0.940221 -0.000000 1.709736 35.248134 -0.000001 0.113772 1.960660 -88.303903 79.314445 -0.000009 -0.669733 -0.113771 0.388340 -0.956381 3.534927 -210.746443 
0.000000 0.000000 0.000000 -0.000000 1.019410 29.863838 -0.000000 0.000000 1.456275 0.000000 -5.371358 0.000000 -0.000000 0.000002 1.471446 -0.000001 -1.133463 -32.664594 0.625745 0.000000 0.917755 0.000004 126.832542 -0.000001 -0.629534 0.000001 0.940221 -0.000000 1.709739 33.363934 -0.000001 0.113772 1.960661 -88.303896 79.884369 -0.000027 -0.669733 -0.113771 0.388341 -0.943217 3.538167 -211.509785 
0.000000 0.000000 0.000000 -0.000000 1.019410 28.106104 -0.000000 -0.000000 1.456275 0.000000 -7.702473 -0.000001 -0.000000 0.000002 1.471445 -0.000001 -1.133463 -30.744266 0.625745 0.000000 0.917755 0.000004 127.314275 -0.000001 -0.629534 0.000001 0.940221 -0.000000 1.709734 31.399612 -0.000001 0.113772 1.960660 -88.303909 80.478528 -0.000009 -0.669733 -0.113771 0.388341 -0.929450 3.541368 -212.305570 
0.000000 0.000000 0.000000 -0.000000 1.019410 26.545489 -0.000000 0.000000 1.456275 -0.000000 -9.772166 0.000000 -0.000000 0.000002 1.471446 -0.000001 -1.133463 -29.039297 0.625745 0.000000 0.917755 0.000004 127.741982 -0.000001 -0.629533 0.000001 0.940221 -0.000000 1.709738 29.655582 -0.000001 0.113772 1.960661 -88.303916 81.006071 -0.000003 -0.669733 -0.113771 0.388340 -0.917192 3.544047 -213.012126 
0.000000 0.000000 0.000000 -0.000000 1.019410 25.403099 -0.000000 0.000000 1.456275 -0.000000 -11.287211 0.000001 -0.000000 0.000002 1.471446 -0.000000 -1.133463 -27.791232 0.625745 0.000000 0.917755 0.000005 128.055064 -0.000001 -0.629534 0.000001 0.940221 0.000000 1.709739 28.378924 -0.000001 0.113772 1.960660 -88.303889 81.392243 -0.000020 -0.669733 -0.113771 0.388341 -0.908195 3.545910 -213.529335 
0.000000 0.000000 0.000000 -0.000000 1.019410 24.422325 -0.000000 -0.000000 1.456275 0.000000 -12.587915 0.000001 -0.000000 0.000002 1.471446 -0.000001 -1.133462 -26.719743 0.625745 0.000000 0.917755 0.000004 128.323859 -0.000001 -0.629534 0.000001 0.940221 -0.000000 1.709736 27.282882 -0.000001 0.113772 1.960660 -88.303896 81.723760 -0.000032 -0.669733 -0.113771 0.388341 -0.900461 3.547443 -213.973366 
0.000000 0.000000 0.000000 -0.000000 1.019410 23.227137 -0.000000 -0.000000 1.456275 -0.000000 -14.172975 0.000000 -0.000000 0.000002 1.471446 -0.000000 -1.133461 -25.413998 0.625744 0.000000 0.917755 0.000004 128.651408 -0.000001 -0.629534 0.000001 0.940221 -0.000000 1.709737 25.947223 -0.000001 0.113772 1.960660 -88.303916 82.127766 -0.000014 -0.669733 -0.113771 0.388340 -0.891015 3.549234 -214.514481 
